<svg width="265" height="32" fill="none" xmlns="http://www.w3.org/2000/svg"><path fill-rule="evenodd" clip-rule="evenodd" d="M97.24 4.34a15.412 15.412 0 00-.446-.073l-.179-.024a17.499 17.499 0 00-.772-.09c-.174-.016-.353-.028-.526-.04a16.5 16.5 0 00-2.994.102l-.161.023-.178.027-.22.033c-.096.017-.19.032-.285.05-.13.024-.26.051-.387.077-1.101.23-2.17.595-3.182 1.086-.498.241-.98.516-1.441.821-.124.085-.25.169-.367.255-.104.075-.207.149-.306.225a11.183 11.183 0 00-1.113.972 9.687 9.687 0 00-.408.425c-.134.149-.265.3-.393.455a11.253 11.253 0 00-1.76 3.032 11.374 11.374 0 00-.742 3.475c-.027.41-.03.82-.011 1.231.011.18.025.36.046.537l.015.123c.027.213.06.419.1.625l.048.237a11.016 11.016 0 001.111 2.969c.19.356.401.7.634 1.029.13.188.263.367.396.537.14.184.285.35.427.515.176.204.353.388.526.56l.094.093c.143.137.296.284.474.434.121.103.248.211.383.32.127.097.259.2.399.302.372.267.758.515 1.157.74.859.48 1.772.857 2.718 1.124.74.213 1.496.364 2.26.453.565.068 1.133.107 1.702.116l.27.004c.696 0 1.341-.027 1.938-.078l.118-.01c.239-.02.468-.046.689-.075a16.346 16.346 0 001.545-.26c.46-.1.916-.218 1.368-.352.212-.064.418-.134.613-.2l.188-.066a20.187 20.187 0 002.111-.9l.22-.105v-4.252l-.152.092-.29.176a17.873 17.873 0 01-3.282 1.59 15.01 15.01 0 01-3.388.8c-.422.042-.847.066-1.271.071a12.356 12.356 0 01-2.055-.164 10.35 10.35 0 01-2.28-.653 9.565 9.565 0 01-.911-.448 6.25 6.25 0 01-.3-.182 7.407 7.407 0 01-.67-.466c-.112-.092-.232-.189-.332-.276l-.14-.126-.07-.063-.043-.04-.05-.049a6.897 6.897 0 01-.998-1.214c-.065-.1-.125-.202-.185-.3a7.329 7.329 0 01-.652-1.463 8.096 8.096 0 01-.367-2.743c.01-.244.03-.55.08-.903.08-.556.223-1.101.424-1.626.04-.106.086-.21.131-.318a9.38 9.38 0 01.206-.433c.056-.111.12-.218.184-.33.199-.343.425-.67.677-.976.092-.107.185-.22.286-.326.05-.053.099-.11.152-.163a8.774 8.774 0 014.348-2.37c.149-.034.299-.064.448-.091.166-.032.33-.056.492-.08.465-.06.932-.09 1.4-.092l.297.002c.22.007.436.012.644.027a12.59 12.59 0 011.83.236c.306.062.585.13.833.193.164.042.314.088.451.13.298.088.593.186.885.291.209.075.412.158.614.236.271.11.529.226.776.339.206.093.4.19.585.28.154.073.294.148.428.218.23.12.427.228.589.317l.435.235V5.985s-.26-.107-.71-.278a53.753 53.753 0 00-.701-.26c-.149-.05-.304-.11-.471-.165a19.529 19.529 0 00-.409-.137c-.16-.05-.324-.105-.495-.156a18.96 18.96 0 00-.376-.113l-.113-.033-.378-.104a12.908 12.908 0 00-.462-.119 14.674 14.674 0 00-.802-.182 27.075 27.075 0 00-.52-.098zM76.366 0h33.138v31.185H76.365V0zM50.897 17.196v6.13h3.979l.21-.008a7.83 7.83 0 00.553-.032 6.896 6.896 0 001.552-.306c.501-.167.987-.422 1.357-.792.143-.144.262-.292.357-.444.24-.383.38-.82.408-1.272.009-.124.007-.196.007-.196v-.152c-.006-.2-.033-.4-.081-.594a2.483 2.483 0 00-.62-1.108 2.965 2.965 0 00-.356-.31 3.886 3.886 0 00-.74-.415 5.416 5.416 0 00-1.197-.352 8.287 8.287 0 00-1.166-.132c-.14-.01-.28-.014-.42-.014l-3.843-.003zm0-9.315v5.808h1.927s.13 0 .298-.006c.132-.003.291-.012.434-.02.396-.03.944-.084 1.491-.238.109-.03.216-.063.322-.1.43-.153.841-.376 1.162-.692.256-.251.423-.53.534-.799.135-.334.184-.651.205-.877.018-.201.016-.33.016-.33s.005-.096-.003-.246a2.687 2.687 0 00-.266-1.06 2.15 2.15 0 00-.407-.551 2.503 2.503 0 00-.762-.501c-.542-.24-1.163-.336-1.687-.37a8.265 8.265 0 00-.612-.018h-2.652z" fill="#25213F"/><path fill-rule="evenodd" clip-rule="evenodd" d="M46.876 4.372v22.46h8.454s4.12.113 6.398-2.164c1.852-1.852 1.721-3.996 1.721-3.996s.133-2.238-1.58-3.954a7.357 7.357 0 00-3.329-1.85s.843-.396 1.49-1.043c.304-.304 1.382-1.28 1.382-3.646 0-2.383-1.587-3.753-1.587-3.753s-1.738-2.054-5.66-2.054h-7.29zM38.18 0h33.137v31.185H38.18V0zM12.715 17.196v6.13h3.978l.21-.008c.134-.003.324-.01.553-.032a6.886 6.886 0 001.552-.306c.501-.167.987-.422 1.359-.792.143-.144.261-.292.356-.444.24-.383.38-.82.408-1.272.009-.124.008-.196.008-.196s.003-.056 0-.152c-.006-.2-.033-.4-.082-.594a2.313 2.313 0 00-.618-1.108 3.078 3.078 0 00-.357-.31 3.95 3.95 0 00-.737-.415 5.474 5.474 0 00-1.197-.352 8.251 8.251 0 00-1.168-.132c-.14-.01-.28-.014-.42-.014l-3.845-.003zm0-9.315v5.808h1.926s.129 0 .297-.006c.133-.003.292-.012.434-.02a7.744 7.744 0 001.494-.238c.105-.03.213-.064.319-.1.43-.153.84-.376 1.161-.692.231-.227.413-.499.534-.799.137-.334.185-.651.205-.877.018-.201.016-.33.016-.33s.005-.096-.003-.246a2.685 2.685 0 00-.266-1.06 2.124 2.124 0 00-.408-.551 2.504 2.504 0 00-.762-.501c-.54-.24-1.163-.336-1.685-.37a8.267 8.267 0 00-.613-.018h-2.65z" fill="#25213F"/><path fill-rule="evenodd" clip-rule="evenodd" d="M8.693 4.372v22.46h8.455s4.124.113 6.399-2.164c1.852-1.852 1.721-3.996 1.721-3.996s.132-2.238-1.583-3.954a7.357 7.357 0 00-3.328-1.85s.843-.396 1.491-1.043c.303-.304 1.383-1.28 1.383-3.646 0-2.383-1.587-3.753-1.587-3.753s-1.737-2.054-5.662-2.054H8.693zM0 0h33.136v31.185H0V0zm151.013 4.375h-3.194l-6.126 15.478-6.26-15.478h-3.062l-6.225 15.478-6.191-15.478h-3.229l9.09 22.658h.625l7.444-18.376 7.378 18.376h.626l9.124-22.658zm5.316 7.377c-4.414 0-7.805 3.293-7.805 7.543 0 4.545 3.261 7.837 7.805 7.837 4.742 0 8.004-3.162 8.004-7.837 0-4.383-3.361-7.543-8.004-7.543zm-.032 2.634c2.932 0 5.04 2.075 5.04 4.94 0 3.195-1.942 5.172-5.04 5.172-2.833 0-4.775-2.077-4.775-5.203 0-2.834 2.01-4.909 4.775-4.909zm10.966-2.34v14.79h2.933v-7.742c0-2.537 1.578-4.546 3.591-4.546.691 0 1.843.595 2.732 1.45l1.548-2.536c-1.22-1.154-2.339-1.713-3.526-1.713-1.381 0-2.8 1.086-4.282 3.689h-.065v-3.393h-2.931v.002zm13.008-7.67h2.933v22.461h-2.933V4.375zm19.315 0h-2.932v7.968c-1.184-.428-2.107-.594-3.095-.594-4.316 0-7.378 3.063-7.378 7.343 0 4.744 2.765 7.743 7.181 7.743h6.224V4.376zm-2.932 19.988h-2.963c-3.394 0-4.513-2.072-4.513-4.84 0-3.096 1.911-5.138 4.742-5.138.987 0 1.745.164 2.732.558v9.42h.002zm18.282-12.318h-2.174l-3.752 8.96-3.887-8.96h-3.13l6.588 15.086h.923l4.346-10.34 4.381 10.34h.919l6.524-15.086h-3.129l-3.853 8.96-3.756-8.96zm13.396 14.791h2.933V12.048h-2.933v14.79zm3.23-19.268c0-.957-.789-1.745-1.745-1.745-.955 0-1.745.788-1.745 1.745 0 .954.79 1.745 1.745 1.745.956 0 1.745-.791 1.745-1.745zm16.75-3.194h-2.929v7.97c-1.187-.43-2.11-.595-3.098-.595-4.313 0-7.378 3.063-7.378 7.343 0 4.744 2.765 7.743 7.178 7.743h6.227V4.376zm-2.929 19.989h-2.966c-3.394 0-4.513-2.072-4.513-4.84 0-3.096 1.911-5.138 4.742-5.138.987 0 1.745.164 2.735.558v9.42h.002zm18.764-1.81c-1.714 1.12-3.391 1.78-5.17 1.78-2.833 0-4.513-1.517-4.975-4.448h10.408c0-5.465-2.503-8.134-6.424-8.134-4.082 0-6.915 3.031-6.915 7.508 0 4.085 2.568 7.872 7.178 7.872 2.504 0 4.117-.56 5.895-1.745v-2.833h.003zm-10.076-4.613c.394-2.336 1.745-3.654 3.984-3.654 2.075 0 3.358 1.415 3.459 3.654h-7.443z" fill="#25213F"/></svg>