<svg width="121" height="44" fill="none" xmlns="http://www.w3.org/2000/svg"><path fill-rule="evenodd" clip-rule="evenodd" d="M89.945 18.017s4.865-.803 7.607-.919c2.743-.114 4.979.224 5.435.804.456.582 1.824 1.78-.691 2.19-2.514.408-5.257.35-5.257.35s-1.66 0-1.83.861c-.172.862.107 1.22 1.082 1.156.976-.065 3.662.114 3.662.114s1.032.173.918.92c-.114.746-.512 1.097-1.488 1.097s-5.086.057-5.086.057-.862.682-1.09 1.493c-.228.81-.4 1.327-.4 1.327s3.826-.402 4.916-.402c1.09 0 3.433-.121 3.605.977.17 1.097-6.113 3.573-9.148 3.515-3.033-.057-3.376-1.959-3.205-3.573.172-1.614 1.261-3.63 1.261-3.63l-.171-1.723 1.368.057 1.204-1.671s-.121-1.386-.805-1.442c-.684-.058-1.717-.811-1.887-1.558.17.747 0 0 0 0zm-7.435-3.282c.4 0 2.052-.395 3.142 1.5 1.09 1.894 2.985 6.336 2.408 9.041s-2.06 4.607-3.832 4.607c-1.774 0-6.063-7.72-6.063-7.72s-1.203 1.327-1.146 2.94c.056 1.615.405 5.469-1.482 5.469-1.888 0-1.546-4.435-1.432-5.008.114-.575.69-5.074 1.375-6.107.683-1.034 1.254-1.844 1.254-1.844s.975-.575 3.32 2.476c.763.994 1.473 2.462 2.285 3.573a15.678 15.678 0 002.002 2.245s.285-3.68-.057-5.238c-.342-1.557-1.773-4.728-1.773-4.728s-.4-1.206 0-1.206c-.4 0 0 0 0 0zm-9.205 3.105c0-.746-1.09-1.491-3.605-1.491-3.263 0-8.171.286-9.147.573-.976.288-4.58 1.27-4.751 3.689-.17 2.418 2.8 2.303 4.288 2.245 1.49-.057 10.294.46 10.35 2.476.058 2.017-3.546 2.131-5.947 2.246-2.4.115-6.411.108-6.233-1.442.178-1.55 2.002-1.148 2.002-1.148s2.122 1.435 4.522 1.435c2.401 0 3.77-.919 3.77-.919s-2.515-1.901-6.747-2.073c-4.231-.173-5.2 1.493-5.257 3.164-.057 1.672 4.06 3.86 8.805 3.86 4.744 0 7.554-2.13 7.6-5.008.057-3.516-6.681-4.262-8.227-4.205-1.546.057-5.359-.203-5.321-.918.057-1.098 7.322-.926 9.609-1.156 2.287-.23 4.289-.58 4.289-1.327 0 .746 0 0 0 0zm37.109-.973s-4.182 2.182-5.664 5.468c-1.482 3.286-.399 6.687-.399 6.687s-2.457 4.148-3.027 6.394c-.57 2.245-.691 5.812-.691 5.812s1.671 2.585 3.034 1.901c1.603-.803.855-6.967 4.517-11.573 0 0 5.794.703 10.008-3.344 6.119-5.877.228-9.73.228-9.73s-.804-.984-3.205.574c-2.401 1.557-8.463 7.025-8.463 7.025s-1.197-1.385 1.09-4.033c2.287-2.648 2.97-3.459 2.97-4.148 0-.688-.398-1.033-.398-1.033zm.343 11.173c-.855 0 4.46-5.533 5.777-6.28 1.318-.745 2.173-.753 2.116.116-.057.868-.651 3.046-2.059 4.32-2.229 2.016-4.978 1.844-5.834 1.844.856 0 0 0 0 0zM60.497 5.058s2.115-.115 2.913 1.154c0 0 1.888 3.803-4.744 6.279-6.921 2.584-8.349 1.09-8.349 1.09s-.918 1.099-1.66 1.214c-.74.114-1.317-2.074-1.26-2.419.057-.344-1.083-1.607-.855-2.705.228-1.098 2.052-4.492 5.257-5.474 3.206-.983 5.429-1.264 6.005-.92.577.345 2.693 1.78 2.693 1.78zm-8.752 6.564s2.062-2.298 4.366-3.85c1.936-1.303 4.104-2.126 5.243-.527.74 1.04-.912 2.189-3.563 3.399-3.127 1.444-6.046.978-6.046.978zm-2.741-1.319s.804-1.384 1.773-2.016c.97-.631 2.97-1.787 2.97-1.787s-2.28-.394-3.654 1.098c-1.375 1.493-1.09 2.705-1.09 2.705zm3.086 6.163c-1.205-.034-1.318 1.378-1.489 3.28-.272 3.02-.748 10.483 1.083 10.598 1.83.114 2.642-.811 2.464-4.205-.178-3.394 0-9.616-2.059-9.673 2.06.057 0 0 0 0zM18.7 19.138l-.362 7.976s-10.306-3.532-9.944-6.028C8.756 18.59 18.7 19.138 18.7 19.138zM.02 3.306C-.163 1.906.764.724 10.777.048c13.51-.913 40.38 11.476 37.902 22.04-3.196 13.628-26.022 9.288-26.022 9.288s-.09 1.948-2.207 1.948c-2.115 0-2.296-3.35-2.296-3.35S7.18 24.71 7.18 20.903c0-3.806 11.88-4.718 11.88-4.718s-.182-7.064 1.662-7.064c1.844 0 2.387 6.973 2.387 6.973s14.435-.542 14.176 4.9c-.18 3.807-5.26 2.497-5.26 2.497s2.116-1.003 2.116-2.13c0-1.129-11.394-2.04-11.394-2.04l.09 8.98s4.232 1.31 9.007 1.036c4.775-.274 12.212-2.617 12.422-7.795.272-6.667-13.089-16.534-26.87-18.359-13.78-1.825-14.81-.489-14.81 0 0 .49 1.573.215 1.573.763 0 .547-3.96.763-4.14-.639.18 1.402 0 0 0 0z" fill="#25213F"/></svg>