<svg width="126" height="52" fill="none" xmlns="http://www.w3.org/2000/svg"><mask id="mask0" maskUnits="userSpaceOnUse" x="0" y="0" width="126" height="52"><path fill-rule="evenodd" clip-rule="evenodd" d="M.813 0h124.933v51.561H.813V0z" fill="#fff"/></mask><g mask="url(#mask0)"><path fill-rule="evenodd" clip-rule="evenodd" d="M106.024 26.073c0 6.06.003 12.12-.008 18.18-.001.335.09.427.461.426 4.55-.012 9.101-.012 13.651 0 .346 0 .449-.075.446-.403-.017-1.93-.019-3.858.001-5.787.003-.343-.125-.396-.456-.394-1.766.014-3.533.01-5.301.006-.73-.002-.627.092-.627-.56-.003-9.846-.005-19.691.008-29.536.001-.4-.115-.493-.537-.49-2.377.02-4.755.018-7.131 0-.4-.003-.519.072-.518.465.016 6.03.011 12.062.011 18.093zM90.277 7.84l.076-.004v.515c0 11.95.002 23.9-.008 35.85 0 .36.064.483.499.481 4.63-.017 9.261-.014 13.89-.003.385 0 .54-.051.534-.46-.027-1.9-.022-3.8-.002-5.701.003-.353-.122-.425-.478-.422-1.94.014-3.879 0-5.82.012-.32.002-.461-.034-.459-.387.017-3.08.014-6.161.002-9.243-.001-.314.112-.38.429-.377 1.298.015 2.597-.002 3.895.012.31.004.393-.086.392-.365a404.227 404.227 0 010-5.616c.002-.283-.087-.363-.393-.36-1.282.016-2.566-.01-3.847.017-.408.008-.48-.113-.477-.46a401.34 401.34 0 00-.001-6.564c-.002-.345.105-.426.467-.423 1.924.016 3.848.003 5.772.012.281.001.417-.038.415-.346a447.84 447.84 0 01-.001-6.133c.002-.292-.106-.356-.404-.355-7.242.007-14.484.006-21.726 0-.265 0-.378.042-.399.319-.114 1.506-.256 3.011-.387 4.517-.176 2.007-.352 4.014-.526 6.02-.168 1.936-.331 3.872-.498 5.808-.178 2.064-.361 4.129-.534 6.194-.087 1.028-.155 2.058-.237 3.166-.143-.264-.124-.479-.14-.687-.046-.646-.084-1.293-.137-1.938-.17-2.094-.344-4.188-.522-6.282-.167-1.95-.34-3.9-.51-5.85-.175-1.992-.347-3.985-.522-5.978-.144-1.649-.298-3.296-.43-4.946-.022-.285-.141-.344-.428-.343-2.487.009-4.975.01-7.462-.001-.324-.002-.37.079-.325.363.584 3.637 1.148 7.277 1.727 10.915.67 4.22 1.355 8.44 2.028 12.66a4871.18 4871.18 0 012.069 13.091c.033.209.083.3.333.3 2.658-.006 5.318-.005 7.977 0 .212 0 .299-.062.33-.263.272-1.749.558-3.496.834-5.244.543-3.44 1.08-6.88 1.627-10.32.547-3.439 1.11-6.875 1.658-10.315.578-3.621 1.146-7.244 1.719-10.866zM31.68 44.476l-.104.014v-.553c0-11.964-.002-23.929.01-35.893 0-.4-.08-.535-.552-.53-2.785.022-5.57.01-8.353.01-.761 0-.754.001-.828.702-.319 2.991-.638 5.981-.963 8.971-.307 2.832-.612 5.665-.94 8.496-.051.434-.02.886-.222 1.401-.178-1.583-.349-3.066-.51-4.55-.264-2.417-.517-4.835-.78-7.253-.27-2.474-.554-4.948-.812-7.423-.03-.29-.14-.35-.429-.349-2.956.01-5.912.01-8.869 0-.319-.002-.382.095-.382.366.007 12.137.007 24.274-.002 36.412 0 .302.085.384.415.382a316.08 316.08 0 015.678.001c.381.004.495-.073.494-.442-.017-6.752-.017-13.505-.021-20.257v-.388a82.67 82.67 0 01.476 4.383c.202 2.365.576 4.712.9 7.064.293 2.11.594 4.218.89 6.326.137.984.271 1.968.412 2.95.028.195.04.372.373.365 1.095-.025 2.19-.012 3.285-.008.199.002.311-.031.34-.248.176-1.327.37-2.65.555-3.976.356-2.551.692-5.104 1.067-7.653.361-2.452.619-4.911.822-7.378.059-.72.135-1.439.211-2.25.134.259.091.434.09.602-.005 6.825-.014 13.649-.027 20.473 0 .268-.011.44.4.439 4.878-.016 9.757-.014 14.635-.003.31 0 .406-.101.428-.358.064-.716.139-1.431.214-2.147.141-1.36.294-2.719.422-4.079.027-.282.146-.349.433-.343.844.016 1.692.042 2.533-.009.492-.029.598.156.639.54.21 1.988.455 3.974.647 5.965.036.373.166.431.53.43 5.052-.01 10.104-.012 15.157.004.425.001.51-.11.507-.48-.014-3.785-.009-7.572-.009-11.359 0-.115.004-.23.002-.346-.002-.147.084-.19.233-.205.294-.03.357.116.41.347.893 3.903 1.802 7.804 2.691 11.707.057.249.139.332.415.33 2.425-.009 4.85-.011 7.274.003.336.002.355-.116.294-.354-.135-.515-.26-1.034-.39-1.55-1.075-4.292-2.15-8.584-3.228-12.875-.052-.208-.043-.372.14-.545.759-.704 1.29-1.55 1.699-2.46.864-1.925 1.182-3.95 1.261-6.016.092-2.372-.09-4.716-.891-6.988-1.368-3.883-4.48-6.454-9.478-6.374-2.596.042-5.193.019-7.79-.003-.45-.004-.56.095-.56.514.014 11.878.011 23.756.011 35.634v.514a287.25 287.25 0 01-1.307-7.477c-.546-3.322-1.08-6.647-1.628-9.97-.516-3.137-1.045-6.274-1.565-9.411-.532-3.209-1.065-6.417-1.578-9.629-.046-.287-.152-.342-.435-.342-2.596.008-5.193.008-7.79 0-.276 0-.4.044-.445.339-.27 1.763-.573 3.522-.867 5.282-.424 2.541-.852 5.081-1.274 7.622-.423 2.542-.838 5.084-1.26 7.625-.423 2.54-.852 5.08-1.274 7.622-.479 2.88-.953 5.759-1.43 8.639zM63.287.01c20.615 0 41.231 0 61.846-.01.477 0 .613.093.613.552-.014 16.83-.014 33.66 0 50.491 0 .463-.145.55-.615.549-41.232-.01-82.463-.009-123.695-.009-.623 0-.623 0-.623-.564V.571c0-.561 0-.561.626-.561h61.848z" fill="#25213F"/></g><path fill-rule="evenodd" clip-rule="evenodd" d="M60.431 20.441c0-1.872.011-3.743-.009-5.614-.004-.371.084-.493.512-.485.784.014 1.299.327 1.594.986.309.687.426 1.415.486 2.143.188 2.329.201 4.657-.254 6.968-.098.496-.248.98-.54 1.413-.361.536-.903.742-1.567.64-.302-.045-.218-.24-.218-.393-.005-1.713-.004-3.427-.004-5.14v-.518zm-18.556-.445l.517 4.973.616 5.962c.042.4.082.8.132 1.201.027.228-.03.343-.319.337a47.684 47.684 0 00-2.015 0c-.276.005-.344-.08-.314-.329.153-1.299.291-2.6.428-3.9.21-2.002.416-4.004.623-6.006l.236-2.247.096.01z" fill="#25213F"/></svg>