<svg width="120" height="65" fill="none" xmlns="http://www.w3.org/2000/svg"><path fill-rule="evenodd" clip-rule="evenodd" d="M66.315 2.04c-1.526-.377-3.197-.082-3.157-.025-.161-.057-.476-.172-.646-.139a.13.13 0 01-.064.025c.04.016.08.032.113.049-.113.04-.154-.009-.243-.033.057.082.049.066 0 .147 0 .009.009.025.017.033.242.057.484.164.823.123v-.017c-.073-.082-.242-.098-.323-.163h-.032v-.017c.218.041.404.148.565.246a.44.44 0 00.064-.05c-.048.099-.12.123-.08.222-.38-.066-.646-.197-.783.212a.675.675 0 00.113.107c-.025.016-.057.024-.081.033l-.024.098c.145.139.234.212.412.278.008.082.016.155.032.23.048.032.048.023.105.015.08.074.024.14.064.189.097.122.485.319.566.442.032.04.008.106.072.155.137.09.299.147.412.245.048.025.016.009 0 .058.274.13.694.114.928.254.04.04.017.016.017.09.226.065.468.122.702.188.016 0 .032-.009.057-.017.008-.057.008-.057-.017-.114.146-.09.178-.238.275-.352-.049-.09-.065-.098-.049-.221.194-.025.259-.14.42-.18-.024-.09-.008-.106-.088-.156.048-.032.04-.016.104 0 .017-.016.032-.032.057-.049-.057-.04-.105-.09-.161-.139h-.033v-.016c.097.024.186.04.29.024.025 0 .033-.008.041-.008-.016-.032-.048-.065-.073-.098.009-.008.017-.008.017-.016.137.082.218.09.42.09.007-.05.024-.099.032-.14.032-.008.056-.008.088-.016-.032.05-.056.09-.088.131.008.017.016.033.016.04.412.091.686-.073 1.074-.13v-.106c.468-.14 1.122.155 1.574.114.145-.008-1.655-1.17-3.528-1.636zM46.306 15.243c.129.098.492-.106.678-.106.073.098.242.515.339.54.145.335-.258.5-.218.753.008 0 .024.008.04.024.065-.073.057-.065.033-.147.016-.008.024-.008.04-.016.032.09-.008.073.08.082-.064.049-.12.09-.193.147-.032.065.016.245.04.4.024.009.057.017.081.025a.159.159 0 00.032-.065.061.061 0 01.017.033c-.065.09-.065.13-.114.212.041.009.025 0 .065-.016.04.057.056.098.032.196.008.27.283.27.162.557.089.13.395.04.476.057-.008-.22.267-.45.364-.654.12-.279.008-.655.008-.982.032-.017.064-.025.105-.042-.04-.245-.081-.498-.113-.744.08-.957.831-1.186 1.582-1.415.355-.115.226-.418.872-.287.17-.319.718-.254 1.033-.335.008-.009.008-.025.017-.033-.065-.041-.049-.017-.081-.098v-.017c.08-.057.347-.114.444-.114.032-.041.064-.082.097-.131-.065-.082-.186-.131-.323-.14v-.016c.12.017.226.033.339.058v.13c.008-.008.048-.36.056-.548a.384.384 0 00-.105-.032c-.056-.041-.008-.009-.016-.09 0-.074.121-.246.178-.328-.049-.04 0-.327.008-.409.08-.082.161-.155.242-.221-.202.278-.097.286-.161.614.056.016.105.033.153.049-.097.098-.202.13-.266.262 0 .008-.009.016-.017.032.033.033.025.025.09.041.096-.22.508-.36.685-.654-.113-.115-.056-.188-.096-.344.08.074.113.131.234.172-.017.033-.04.057-.065.09v.016c.267.033.638-.319.759-.515-.024-.057 0-.033-.057-.066a.062.062 0 00-.016-.032c.315-.05.768.049 1.107.016-.033-.04-.057-.082-.09-.115-.258.033-.492-.065-.75-.008.307-.245 1.251.107 1.663-.057.04.107.145.098.347.107.016-.033.048-.066.073-.099a.289.289 0 00-.057-.082c-.04.09-.008.099-.105.099a4.831 4.831 0 00-.137-.025c-.032-.098.016-.254-.17-.278v-.033c.081-.016.17-.04.243-.057a.788.788 0 00-.065-.115c.113-.14.364-.23.469-.327.274.05.451.04.726-.098.04.049.032.033.032.098.34-.025.662 0 1.018-.09-.017-.041-.033-.082-.049-.115.04 0 .218.074.275.082.266.058.775 0 1-.074.017.009.025.017.033.042-.089.008-.161.04-.242.057a.06.06 0 00-.016.033c.088.016.186.04.274.057-.33.049-.67.106-1.001.163-.008.009-.008.025-.016.033.04-.008.08-.016.121-.033-.024.017-.049.025-.073.033-.08.098-.105.106-.105.286a.437.437 0 00.105.009c.065.09.024.147.162.155.242.017.468-.147.734-.164.033-.065.009-.09.09-.122.007.016.024.032.032.057a.506.506 0 01.072-.065c.016.114.081.114.17.147.145-.164 1.082.04 1.356-.041h.033c-.049-.057-.097-.074-.21-.082.048-.024.056-.016.088-.066.21.074.445.025.743.034v-.05c.008-.106-.153-.196-.266-.204v-.017c.048-.057.096-.106.137-.163-.04-.057-.032-.025-.032-.107a2.163 2.163 0 00-.105-.024c-.17.082-.573.188-.581.433-.122.017-.178.008-.186-.13-.404.04-.566-.164-.896-.205-.025-.024-.049-.066-.073-.09h.073c0-.008.008-.025.016-.033-.105-.04-.202-.082-.315-.123-.057-.04-.105-.204-.145-.278a.328.328 0 01.08-.073c-.048-.041-.096-.058-.194-.058v-.032c.186-.025.267-.123.445-.197.008-.016.024-.04.032-.065v-.017c-.178.05-.331.025-.59.017-.032-.123-.128-.172-.266-.197 0-.016-.008-.024-.016-.032.242.016.323.13.525.155l.54-.074c.009-.016.009-.032.009-.049.048-.04 0-.04-.017-.106.017.008.041.016.065.025v-.017c-.428-.58-1.921-.384-2.567-.262-.267.05-.436.295-.791.295.153-.156 1.065-.5 1.348-.59 0 0 .573.042.621.033.05-.049.097-.106.154-.171.234-.123.581-.074.896.008.396.123.783.155 1.179.294.25.09 1 .401 1.26.36.201-.032.379-.09.564-.171.412-.18 1.26.27 1.55-.05.025-.065.017-.008-.016-.09.017.009.025.017.033.017.048-.09 0-.368.056-.467-.097-.032-.202-.073-.29-.106 0-.057 0-.008.015-.073-.185-.017-.193-.058-.314-.05-.033-.213-.218-.278-.436-.31v-.017c.153.016.299.033.452.057-.073-.114-.266-.13-.29-.253-.146-.041-.267-.009-.388-.082-.065-.041-.049-.05-.049-.115-.072-.049-.266-.032-.33-.09-.073-.065-.09-.13-.21-.18-.025-.073-.041-.033.016-.082-.008-.04-.315-.261-.453-.294.057-.041.041-.025.098-.025.008-.04.008-.147.015-.27-.04-.025-.08-.04-.12-.057-.017-.008.04-.098.04-.205-.162-.065-.34-.13-.315-.31-.033 0-.057-.009-.089-.009-.097-.163-.5-.679-.492-.843-.42.115-.97.81-1.559.336-.088.008-.153-.147-.339-.172-.008-.05-.008-.098-.016-.147-.04-.009-.072-.017-.113-.025.048-.139.097-.163.089-.352a3.49 3.49 0 00.194-.081c-.017-.025-.032-.05-.057-.082-.048.024-.105.04-.153.065-.113-.13-.372-.188-.566-.245a.064.064 0 01-.016-.033v-.016c.033-.025.025-.017.081-.033v-.017c-.137-.122-.412-.327-.581-.392-.145.008-.283.008-.436.016-.355-.123-.703-.27-1.066-.262l-.105.107c-.008.024-.008.04-.016.065.032.041.024.041.08.065-.072.09-.169.14-.314.164.137.164.04.189.113.287-.056.057-.476.22-.63.229l-.048.098c.21.065.403.237.412.515-.178.401-.598.475-1.106.557-.178.008-.356.008-.533.016h-.04c.015.074 0 .18.096.221-.089.18-.282.393-.145.597-.097.066-.218.164-.34.164 0 .05 0 .098-.007.147-.017.008-.04.008-.065.017-.008-.057-.04-.057-.065-.131-.145.016-.217.074-.314.13-.065-.024-.121-.056-.178-.081-.048-.278-.226-.442-.34-.696.082-.081.163-.147.227-.245 0-.057-.008-.098-.008-.139.097-.106.202-.156.283-.287-.364-.024-1.397-.343-1.599-.548-.08-.065-.097-.229-.202-.31-.161-.083-.315-.148-.476-.222-.178 0-.356 0-.533.008h-.032c.12-.138.202-.327.306-.482-.088-.041-.218-.05-.363-.041 0-.025 0-.058.008-.082.331-.4 1.421-.802 1.89-.777a.53.53 0 01-.065-.074c.161.008.347.033.533.008.064-.09.048-.09-.008-.163h-.049v-.017c.275.082 1.187.065 1.599-.147.064-.04.016-.017 0-.066.186-.032.363-.073.54-.114h.041v-.009a.244.244 0 00-.121-.057c-.008-.016-.008-.024-.016-.032.12.008.242.016.355.032 0 .09.258.262.38.295.032-.033.008 0 .016-.05l.016-.016c-.04 0-.016-.008-.065.017-.024-.066-.04-.074-.121-.131v-.016c.064.024.121.057.17.081 0-.049-.008-.098-.008-.147.064.05.129.098.201.147 0-.016 0-.032.008-.049.291-.074.566-.065.792-.139-.049-.04-.09-.09-.138-.14.017-.007-1.614-.924-3.504-.883-1.227.017-5.619 1.539-9.09 3.323-2.656 1.358-4.7 3.052-4.82 3.183-1.066.932-2.075 2.078-2.616 3.477a2.512 2.512 0 00-.186.213c-.04.09-.347.892-.347.933.049 0 .097.008.146.008-.033.238.113.246.04.532-.089.426-.38.94-.517 1.4-.024.098-.113.327-.089.45.025.163.081.368.025.572l-.194.344c-.08 0-.105.024-.194-.008-.008.008-.008.008-.016.008-.032.237.065.376.048.58.049 0 .032 0 .081-.032.137.377.065.777-.202 1.03.081.345.259.541.194 1.073v.016c.016 0 .024.008.032.008.307-.319.234-.286.267-.695-.016-.04-.025-.09-.033-.123a.522.522 0 00-.08.107h-.016c-.04-.27.226-.95.282-1.236.032-.188-.065-.507-.016-.728.113-.524.17-1.645.597-1.972.016.04.04.073.065.123a.154.154 0 01.056-.05c.098.303-.274.761-.226 1.17a.591.591 0 00-.201.221c.016.008.032.025.048.041.032-.032.065-.073.097-.106 0 .106-.048.434.056.532.025.04 0 .016.049.008.008.008.016.024.032.033-.056.123-.113.18-.105.368.04.033.033.024.089.041-.016.065-.032.14-.048.213.024 0 .048-.008.08-.008 0 .229-.088.302-.201.458.024.212.12.262.21.425-.065.074-.057.115-.081.221.161.23.379 1.767.064 1.997-.072.114-.072.081-.032.196-.057.074-.089.066-.17.098-.242.598.283.753.29 1.236.041.016.074.049.122.074 0 0 1.922-.066 3.068-.09.04 0-.08-.041-.137-.082-.049-.058-.275-1.236-.234-1.408.04-.057.072-.114.113-.18-.162-.376.097-.76.242-1.088.121-.303.234-.59.347-.884.113-.13.331-.098.396-.343.04-.164-.032-.32.048-.532.073-.189.283-.246.275-.491.113.008.298-.074.314-.164.017-.04.041-.066.057-.098.008.065.008.04-.016.106.08-.04.056-.057.097-.049a.863.863 0 00.072-.09.293.293 0 01-.056-.082c.299.033.525-.09.783-.237.162.04.097-.074.08-.164.041-.049.09-.065.146-.098 0 .008.008.016.016.016l-.073.074.065.033c.073.065.348-.09.517-.074.153.017.5.156.621.221.017 0 .033 0 .049-.008v-.065c-.04 0-.073-.009-.113-.009a.116.116 0 01-.016-.057c.04-.016.089-.024.129-.04.016.065.121.163.17.228a.114.114 0 01-.033.025.18.18 0 01-.032.05c.056.048.113.089.161.13.089-.033.17-.066.243-.098.016.04.024.082.032.114.13-.024.137-.09.21-.163.064.073.129.18.218.229l.048.024h.016l.073-.082c-.056-.057-.113-.106-.17-.171l-.032-.033c.048-.057.09-.074.186-.09.04-.066.024-.057.016-.164l-.13.082h-.015a.103.103 0 01-.032-.05c.266-.171.573-.13.847-.081.016-.04.04-.082.056-.123a.107.107 0 00.05-.04v.229c.387.049.67-.107.96.204.064.066.064.205.097.237zm-.53 25.515c.21.344.396.827.662 1.105.565.581 1.477.892 1.832 1.645.17.172.34.335.51.507-.009.074-.017.164-.025.237.024.238.13.565.089.81-.016.115-.057.263-.04.377.016.09.032.163.048.237-.04.237-.145.483-.145.786-.073.024-.033.008-.122 0 0 .082-.008.172-.008.253h.081c-.024.156-.04.311-.064.467.024.155.04.31.056.474-.016.058-.113.082-.13.172.009.057.025.131.033.189a2.36 2.36 0 01-.177.777c-.097.188 0 .384-.162.499.024.254.105.376.089.646-.065.017-.04.017-.113.017-.048.589.242.908.065 1.35.024.008.088.188.064.245-.145.393-.315.77-.347 1.228-.016-.025-.032-.033-.057-.05v.238l-.145-.049a.017.017 0 00-.016.016c.032.32.186.671.315.95-.016.368-.234.474.04.9v.073c-.024-.016-.056-.032-.08-.057-.057.172.032.352-.009.556.057.074.121.082.218.123.025 0 .04-.008.057-.016.032-.188.016-.41-.073-.548a.173.173 0 01.032-.041c.04.016.081.04.114.057h.024c-.016-.082.032-.066-.04-.074a.282.282 0 00.032-.073c.032.032.056.073.097.106-.017.033-.04.05-.057.074.089.065.13.261.016.303.04.024.065.049.097.073-.048.295.008.507 0 .826h-.032c-.024-.09-.097-.36-.057-.384a.46.46 0 00-.234-.196.656.656 0 00-.113.319l.145.147c-.008.082-.008.155-.016.246h-.12v.016l.047.106c-.04.033-.088.066-.128.106v.074c.04.025.072.041.112.066.025-.025.057-.041.073-.066.08.066.234.09.315.18-.024-.008-.048-.024-.065-.024.025.057.017.04.049.073l-.049.172c-.064-.04-.08-.057-.177-.065v.016l.048.05c-.024.015-.056.032-.08.048.088.18.113.442.226.59l.242.122c-.049-.016-.097-.025-.138-.033v.017c.017.065.033.14.049.212.032.009.056.025.097.033.016-.049.04-.106.064-.163.016.049.033.09.049.13h-.065c-.008.009-.016.009-.016.017.065.098.08.147.08.295a1.63 1.63 0 00.21-.066c.041.041.033.05.105.066-.015.024-.023.049-.032.073-.056-.016-.113-.033-.177-.049-.008.008-.008.016-.016.033.064.114.153.18.258.245-.008-.024-.024-.049-.033-.065.106.074.194.155.291.245v.017a8.233 8.233 0 01-.274-.131c.12.155.21.204.355.229-.016.057 0 .008-.024.065.137.123.694.5.847.467 0 .065.009.016-.016.065.162.164.695.36.945.426v-.017c-.04-.04-.073-.081-.113-.13.178.073.299.016.42.13V59.8c.089.016.17.024.242.032h.016a.119.119 0 00.024-.032c0-.017-.008-.033-.008-.057-.46-.058-.621-.467-.993-.573l.049-.074c-.113-.115-.25-.106-.347-.229-.016 0-.025-.008-.033-.017.017-.008.032-.024.057-.032.08.032.17.065.25.114V58.9c-.137-.172-.355-.295-.38-.59.009-.016.009-.024.017-.04l.242-.05c.065-.049.04-.155.032-.278.113-.081.34-.13.428-.229.032-.04.032-.156.016-.27-.282-.188-.702-.245-.605-.663a.475.475 0 01.476-.082h.073c-.016-.065.008-.032-.057-.065.04-.074.057-.066.13-.09a.775.775 0 00-.057-.303c.072-.106.129-.155.307-.155-.04-.082-.146-.107-.21-.164-.008-.008-.016-.016-.033-.016l.121-.05c.09.058.122.09.17.189l.145.025a.346.346 0 01.049-.058c0-.114-.008-.156-.049-.213-.016-.016-.024-.032-.04-.049a1.2 1.2 0 00-.186.017.64.64 0 00.081.065v.024c-.032-.016-.072-.024-.113-.04-.064-.041-.064-.082-.178-.123-.056-.106-.056-.31-.105-.442.13-.163.428.164.606.213.13-.008.275-.008.412-.025.032-.065.056-.122.089-.188-.025.008-.049.025-.081.033a.25.25 0 00-.065-.066c.09-.13.202-.261.138-.433.024.016.048.024.072.032h.016c-.016-.032-.024-.065-.04-.098.25.098 1.356.262 1.655.082.073-.033.331-.36.436-.442v-.245c-.153-.058-.218-.066-.234-.246.048-.04.089-.09.137-.13-.073-.312-.38-.344-.525-.59a.694.694 0 00.073-.09.113.113 0 00.048-.016c.049.073.097.098.122.196.113.024.218.05.339.074.097.074.21.278.339.303.105.024.186-.058.299 0 .08.04.137.139.274.122.347-.04.412-.204.614-.351.129-.05.242-.107.37-.164.09-.115.178-.237.276-.352.226-.099.452-.205.678-.303.274-.18.42-.516.678-.712.315-.245.719-.294.84-.752a.15.15 0 01-.065-.017c.04-.164.056-.393.145-.638.081-.197 1.292-.818 1.607-.72.073.049.137.106.21.163.008-.04.016-.081.032-.13-.024-.009-.048-.009-.073-.017v-.016c.162-.041.315-.279.468-.23.057-.049.057-.032 0-.09v-.049c.324 0 .945.132 1.252.279.032-.041.032-.041.089-.066-.016-.278.306-.171.517-.261.129-.115.137-.443.339-.533.323-.171.306-.27.532-.425.098-.066.202-.057.267-.155.226-.385.073-.557.549-.729.072-.262.145-.466.29-.663.081-.081.154-.163.227-.261.08-.23.032-.426.12-.639.098-.229.291-.368.316-.662.21-.123.395-.082.597-.221.299-.262.59-.524.888-.786.105-.024.202-.05.315-.065.13-.115.266-.213.395-.32.477-.31.864-.589 1.058-1.202 0-.115.008-.238.016-.352.049-.221.307-1.678.3-1.678-13.379-.024-23.301.14-23.301.14zM57.67 2.89c.218.033.509.058.743.172.242.107.299.27.565.311-.064.041-.089.016-.17-.008.057.106.122.164.275.188-.032.008-.056.016-.073.033.073.065.113.106.202.156h.073c-.024-.074-.008-.058-.073-.082v-.017c.509.155.969.524 1.542.614.025-.082-.008-.041.065-.05v-.016c-.17-.229-.565-.474-.84-.589 0-.033-.008-.04-.016-.073.105.065.226.122.331.18v-.066c.307.189.67.401.985.59.024-.009.057-.009.08-.017h.033v-.017c-.105-.065-.161-.057-.242-.171.056.016.097.032.145.049h.016c.008-.057-.008-.074-.048-.13.008-.01.008-.026.016-.034.04.025.032.017.049.066.104-.009.072-.017.129-.082.024.065.032.065.08.106h.016a.163.163 0 00-.032-.065h.121v-.033a.954.954 0 00-.323-.18.062.062 0 01-.016-.033c.033-.008.065-.008.097-.016V3.66c-.089-.074-.395-.328-.613-.295 0-.106-.049-.237-.178-.27h.145a.06.06 0 00.017-.033c-.017-.032-.04-.04-.065-.074.226.017.42.205.622.213-.073.23.371.295.524.418.113-.017.113-.058.202-.058-.024-.008-.04-.032-.056-.04.024-.058.016-.033.056-.066.08.033.17.065.258.024v.074h.114a.29.29 0 00-.049-.074c.056-.032.008-.016.073 0 .016-.008.032-.008.048-.016a.631.631 0 01-.064-.098.629.629 0 00.347.008c-.049-.155-.234-.213-.412-.196-.024-.05.008-.025.048-.05-.056 0-.113 0-.169-.008-.064-.024-.113-.13-.299-.139.04-.032.008-.016.073-.032a.587.587 0 00-.331-.14c-.008-.008-.025-.016-.033-.032.025-.017.049-.025.073-.041-.186-.033-.226-.082-.347-.017-.105-.09-.097-.13-.274-.155.008-.016.024-.033.032-.05a7.769 7.769 0 00-.412-.106v-.016c.04-.008.073-.008.105-.016.008-.066.008-.041-.016-.098.129.032.25.065.387.106a.067.067 0 01.033-.033.437.437 0 00-.307-.13c0-.009.008-.033.016-.05.056.017.121.05.186.066 0-.017.008-.017.016-.017v-.057c-.153-.114-.186-.123-.428-.106.056-.074.073-.05.17-.058v-.016c-.17-.139-.428-.074-.614-.18 0 0-.161-.188-.194-.205-.12-.073-.565-.155-.646-.163.008-.025.024-.041.032-.057-.169-.074-.33-.123-.508-.213h-.04.04a.71.71 0 00.137.008v-.024c-.089-.132-.872.196-1.009.4-.056-.032.315.287.218.27-.016.017-.024.033-.048.05h-.033c.057.081.42.065.5.065a.133.133 0 01.017.04c-.056.033-.08-.024-.161 0h-.04c.047.124.16.09.282.05.016.04.024.09.04.131a.61.61 0 00-.218-.033c.033.123.242.147.388.156.008-.025.008-.041.016-.066a.635.635 0 00-.17-.04l.024-.099c.097.033.146.09.291.115.025.09.048.18.081.27-.275.032-.55.065-.816.09-.008.016-.016.024-.024.032.057.058.121.115.178.164v.016c-.194-.049-.404-.008-.574-.032-.379-.066-.67-.27-1.04-.041.007.016.015.032.015.049.105.196.436.123.654.155z" fill="#25213F"/><path fill-rule="evenodd" clip-rule="evenodd" d="M56.22 3.533c-.023-.045-.04-.091-.064-.152a.345.345 0 00-.314-.137c.015-.076.048-.152.056-.228-.137-.152-.404-.32-.493-.547-.064-.106.017-.273-.096-.365-.016.03-.025.06-.04.092-.316-.062-.671.242-.776.653-.153-.016-.299-.016-.395.121.096.107.33.076.452.076-.033.03-.049.062-.073.092-.016.06-.032.121-.056.182.258.091.678-.045.831-.243.105.046.202.091.29.137-.024.03-.056.045-.08.06.161.274.46.29.759.26zm2.767-1.444c.033.061 0 .015.049.061-.016-.016-.032-.046-.049-.06zm-.91-.106a1.405 1.405 0 00-.227.152l-.024.152v.03c.121.122.5.26.654.107.033-.06.08-.121.113-.183v-.106c-.17-.076-.29-.152-.517-.152z" fill="#25213F"/><path fill-rule="evenodd" clip-rule="evenodd" d="M59.965 3.707c-.024-.037-.04-.074-.065-.112.065-.11.041.02.033-.167-.218-.018-.186-.204-.347-.297-.04.037-.081.093-.121.149a.59.59 0 010 .334c.226-.019.29.019.5.093zm-4.68-1.45l-.05-.112a1.74 1.74 0 01-.04.223l.121-.112h-.032zm-.28.711a5.46 5.46 0 00-.282.224c.008.09.016.202.016.292.258-.067.5-.022.734-.202a.21.21 0 01.017-.09c-.162-.09-.324-.157-.485-.224zm4.99-.202c.033.09 0 .022.049.09-.016-.023-.032-.068-.048-.09z" fill="#25213F"/><path fill-rule="evenodd" clip-rule="evenodd" d="M56.66 3.128c-.007.024-.007.068-.015.09.048.09.08.18.12.27.05 0 .106.044.154.067 0-.023.008-.067.016-.067v-.135c-.089-.068-.177-.157-.274-.225zm2.832.469a.782.782 0 00-.29-.516c.008.112.008.225.016.336-.049 0-.105 0-.162-.022.016.045.016.068.024.09.17.067.316.135.445.246-.008-.045-.025-.09-.033-.134zm-2.525-.74v.135h.113v-.045c-.032-.022-.073-.067-.113-.09z" fill="#25213F"/><path fill-rule="evenodd" clip-rule="evenodd" d="M58.605 3.733v.09c.016-.023.032-.023.048-.045v-.045h-.048zm-2.635-.27c-.057.067-.121.112-.178.179-.008.045-.024.112-.032.18l.048.2c.13.068.194-.134.307-.2.024-.068.048-.113.065-.18-.073-.112-.105-.157-.21-.18zm1.235-.403c-.056-.022-.113-.067-.17-.09.033.202.073.225.138.359h.072c.009-.044.009-.067.017-.09-.017-.067-.033-.111-.057-.179z" fill="#25213F"/><path fill-rule="evenodd" clip-rule="evenodd" d="M73.008 4.968c-.13.04-.194-.058-.307-.123-.032 0-.056.008-.089.008.016.017.04.033.057.057-.194.041-.428-.09-.63-.139-.008.009-.008.017-.016.017.008.024.032.049.04.073-.089-.065-.153-.13-.283-.147v.017a.585.585 0 01.105.106v.016c-.088-.033-.064-.049-.137.008-.194-.155-.363-.376-.686-.409.024.025.049.057.08.082a1.77 1.77 0 01-.144-.057c-.041.04-.09.074-.13.114a.063.063 0 00-.016.041c.226.057.452.115.67.172-.113.074-.226.041-.412.008a1.387 1.387 0 01-.016.017c0 .016.009.024.017.032.314.082.443.172.653.279 0 .016.008.024.016.04l-.17-.048c-.007.008-.007.016-.015.016.008.032.024.057.032.082.477.122 1.623.703 2.019.245v-.024c-.202-.131-.501-.328-.638-.483zM56.039 3.642l.032.033h.113v-.016c-.056-.009-.096-.009-.145-.017zm10.327.124c.033.033 0 .009.049.033-.032-.033 0-.008-.049-.033zm-8.56-.393c.032.05.072.057.129.082h.072a.497.497 0 00-.201-.082zm3.496 1.18c-.067-.022-.123-.067-.191-.09-.022.158 0 .134-.17.112v.046c.08.2.192.336.316.403.034-.067.08-.113.124-.18-.034-.089-.056-.201-.079-.29zm-.558-.201c.045.112.023.09.113.134v-.044c-.045-.067-.022-.067-.113-.09zM53.54 5.76a1.037 1.037 0 00-.356-.081c-.024.016-.056.024-.08.032.048.098.306.188.427.22h.025c.016-.08 0-.114-.017-.17zm33.189 13.797c-.089-.172-.17-.36-.258-.54.016.024.032.049.056.074.008 0 .016.008.032.024v-.04c.017-.082-.08-.189-.136-.279.016 0 .023-.008.032-.008.04.04.08.09.12.13h.017c-.032-.065-.057-.146-.08-.212.056.057.112.123.185.188-.089-.196-.323-.589-.509-.67.024-.075-.008-.05.065-.033-.057-.221-.388-.426-.428-.753h.024c.024.188.154.139.234.212h.016c-.072-.09-.137-.196-.202-.294l.097-.074c.09-.065.154.123.259.123.008.073.016.082.032.163.016-.212-.008-.482-.04-.556-.09-.106-.154-.262-.234-.4a7.24 7.24 0 01-.638-1.31c-.049-.123-1.631-2.619-3.641-4.541-2.083-1.973-4.594-3.347-4.562-3.356a.41.41 0 01-.194.132c.017.114-.008.122.04.188-.056.016-.088.04-.153.073.065.098.146.156.202.23.016.073.024.13.049.188.153.245.484.36.613.654.08.017.08-.008.137-.04.017.073.049.139.073.212.081.107.541.368.71.27.081-.049.09-.171.057-.278a.476.476 0 00.097-.041c-.008-.024-.024-.049-.032-.082v-.024c.484.237.726.85 1.227 1.055.032.066.056.123.08.188-.088.025-.096.074-.137.131.097.131.21.23.364.311-.049.066-.033.025-.122.008v.017c.04.057.073.082.146.114a.39.39 0 00.097.009v-.131c-.049-.05-.105-.156-.194-.189 0-.057-.008-.024.032-.065-.032-.04-.056-.09-.105-.123.04.05.073.082.105.123.032.033.073.057.097.098.065.009.13.009.202.017h.016v-.05l-.145-.171c.024-.05.024-.025.016-.082l.194.024a1.915 1.915 0 01-.073-.13c.04.032.727.654.694.679-.097.049-.072.098-.048.196-.024.008-.056.016-.08.025-.122.147-.154.016-.291 0-.065-.058-.04-.017-.017-.082-.064-.041-.113-.098-.161-.14v.099c-.032-.008-.065-.008-.097-.016.016.098-.032.065-.056.188-.033-.009-.057-.017-.081-.025-.033-.033-.049-.122-.057-.163-.032-.041-.024-.041-.08-.058.008.025.016.05.032.074-.146 0-.25-.123-.355-.205-.033-.008 0-.008.016-.024-.04-.05-.065-.074-.145-.082a.06.06 0 01-.017-.033c0-.008.008-.024.017-.032.113.065.226.147.338.212-.064-.155-.225-.393-.411-.327-.049-.05-.065-.18-.113-.254.024.016.048.025.073.041 0-.033.007-.057.016-.082-.162-.188-.388-.286-.469-.548a1.466 1.466 0 01-.113.05c.016.048.025.09.04.138h-.064c-.032.017-.056.041-.089.05.057.31.678.785.646.932.04 0 .089.008.13.017.072.13.137.196.225.327-.073.025-.048-.008-.04.098-.097-.033-.113-.057-.25-.04v.073l-.234.024-.033.082c.016.033.04.074.065.123.064.032.048.024.121 0 .04.098.08.114.065.196-.04.066-.008.041-.081.017h-.016c.016.13.008.147.064.22l-.13-.024c-.055-.172-.128-.343-.185-.524-.008 0-.016-.008-.032-.016h-.016c.056.23.25.606.113.736-.089.082-.266.099-.34.205.041.106.098.213.146.327a.39.39 0 01-.194.09c-.04.058-.08.115 0 .172l-.048.05c-.218.04-.452-.148-.605-.197-.017 0-.017.008-.025.016.105.147.226.23.29.41.017.016.033.04.05.056v.017c-.138-.025-.219-.05-.307.025a2.448 2.448 0 01-.21-.148c-.122.058-.307.033-.404.131-.008.008-.024.008-.032.008.024.148.137.131.226.205-.033 0-.065.008-.105.016.185.172.452.123.71.221.016 0 .824.77.832.81a.322.322 0 01-.08-.065c-.009.008-.017.008-.017.016.202.287.428.696.428 1.236-.299.123-1.001-.082-1.397-.13-.105-.01-.363.105-.525.048-.072-.025-.105-.09-.218-.057-.105-.025-.153.082-.113.163-.08.033-.194.033-.226.107l-.064.04c.008.18.105.165.129.295.056-.008.048-.008.097-.032.032.294.21.507.307.793.088.246.04.982-.017 1.236.081.074.121.122.194.204.032-.024.065-.04.105-.065.081.237.154.483.145.843.146-.05.356.04.444.008.057-.016.09-.09.194-.114.29-.14.444.58.76.638.064-.066.314-.311.338-.369.234-.008.396-.04.582.025.007-.024.024-.05.04-.082.097.016.097.025.145.066.057-.123.097-.336.154-.442a.36.36 0 01.185-.033c0-.098-.072-.262-.016-.442.032-.098.121-.098.145-.237-.516-.352-.048-.81-.193-1.097.088-.13.177-.081.306-.18.081-.049.162-.22.219-.286-.025-.197-.324-.474-.25-.68.015-.056.104-.098.137-.163.266.082.427.197.661.295.113-.115.09-.328.291-.352.016-.082.032-.155.057-.245v-.034c.46.09.726.73.96 1.056 0 0 .654.639.679.655.016.008.088-.041.145.008.04.066.089.13.129.205.493.474.638.613.856 1.333-.048.025-.153.05-.202.131-.17-.008-.17-.024-.274-.114-.025.04-.025.033-.033.09a.423.423 0 01-.064-.057h-.016c-.009.073-.025.155.016.229.024.065.646.564.726.597h.016c-.04-.262-.17-.41-.17-.728l.098.073h.016a.64.64 0 00-.048-.425c.016-.098.008-.074.072-.107-.056-.22-.162-.245-.274-.384-.033-.14-.065-.27-.097-.41.008-.007.024-.016.032-.024.073.115.267.311.38.385-.097-.385-.46-.704-.784-.868-.04-.065-.056-.106-.056-.229-.097-.057-.178-.016-.283-.106-.25-.204-.363-.532-.557-.785-.17-.23-.492-.312-.581-.614.008-.041.016-.074.016-.123-.032-.09-.13-.115-.162-.237.09-.025.09-.05.13-.115a.198.198 0 00.064.008c.065.082.194.32.242.442.009.008.025.017.033.025l.016-.131c.024.073.064.13.089.188a.22.22 0 01.048.041c-.016-.057-.04-.107-.064-.164.161.066.218.344.306.442.122.156.307.246.42.36a.146.146 0 01-.064-.016c.04.073.072.098.12.163.025 0 .057 0 .082.008a61.979 61.979 0 00-.081-.081c.008 0 .016-.008.032-.008l.097.073c.008.016.008.025.016.041l-.097.025c.065.073.057 0 .146.049.193.098.5.425.613.605.097.254.186.508.29.77.114.212.372.433.477.67.04-.008 0 0 .048-.016 0 .016-.04.09 0 .18a.45.45 0 00.275.197c-.032.098-.032.065-.04.204.12.18.234.344.306.564.017.025.033.034.049.05h.016a.6.6 0 00-.032-.131h.016l.121.27c.008.008.016.016.032.016-.016-.04-.024-.09-.032-.13.032.04.073.081.105.122h.016zM59.791 4.434c-.024-.008-.057-.008-.081-.016a.129.129 0 00-.056.033c-.009.016-.025.032-.033.049.057.04.154.033.234.016.008-.008.025-.016.025-.033a.886.886 0 01-.09-.049z" fill="#25213F"/><path fill-rule="evenodd" clip-rule="evenodd" d="M79.02 12.037c-.008-.033-.024-.074-.032-.107a9.648 9.648 0 01-.243-.024c.032-.066.121-.18.097-.295-.04-.172-.347-.515-.541-.294-.016-.008-.032-.017-.048-.017-.113-.229-.275-.49-.55-.654-.112-.058-.21-.099-.314-.148-.275-.27-.412-.482-.848-.49.057-.033.097-.058.145-.09-.032-.025-.056-.05-.088-.066.064-.147-.009-.254.016-.393-.162-.147-.444-.114-.654-.065 0-.107.032-.066-.057-.107a.24.24 0 01.13-.163.319.319 0 01-.041-.123c-.178-.041-.355.049-.525-.016-.04.057-.032.065 0 .122-.032.074-.016.082.04.148-.007.008-.032.008-.04.016-.056-.008-.032-.016-.064.04.032.058.064.107.104.165v.016c-.08-.057-.153-.106-.226-.164-.032.066-.024.033-.072.098a.668.668 0 00.371.172c.017.025.025.05.033.066-.025.016-.057.033-.081.049.04.09.065.09.048.196l.17-.024c.008-.025.024-.058.024-.09v-.033h.016c.032.188.13.327.178.524h.08c0-.008.009-.025.017-.033-.016-.025-.025-.057-.049-.082.049.025.081.041.113.066h.017l-.049-.172c.04.033.089.073.137.106.033.074.033.147 0 .254.049.04.113.082.162.13h.016c-.008-.024-.024-.048-.032-.065v-.016c.048.016.096.04.153.057v-.066c.121.05.162.017.242-.048.13.147.073.384.355.335.009.147.04.196.09.286-.138.107-.275.025-.42 0 .024.115.064.09.129.156-.025.033-.049.057-.065.082 0 .016.008.024.016.033.04-.017.09-.033.137-.05.04.058.097.123.146.188-.024.107-.121.156-.226.164-.016.025-.04.041-.057.057.057.058.113.107.17.156.193-.098.363.024.557.09.056-.024.105-.049.145-.066-.024.058-.016.05-.016.115h-.347c.008.164-.105.344-.234.466v.033c.088.008.097-.008.186.058.056-.074.024-.131.153-.164.088-.025.194.024.282.05.008-.058-.016-.165.033-.206 0 0 .557.05.573.05h.056c-.016-.025-.032-.05-.04-.082.266.016.396.008.606-.098.007-.009.007-.025.016-.033zM64.31 8.625c-.008.016-.008.04-.016.049.057-.025.025.016.049-.05h-.033zm-4.364-.28c-.008.008-.008.024-.016.033.387.253.662.458 1.178.622a.06.06 0 01.033-.017v-.05c-.275-.244-.735-.564-1.195-.588zm3.615-.58c0 .05-.017.025.032.074l.04-.04v-.017c-.016 0-.04-.008-.072-.016zm-1.122-.351a.352.352 0 00-.121.04c-.016.107-.016.033-.048.099.242-.017.46-.05.677-.066-.169-.016-.338-.049-.508-.073zm.578-.304c.008.017.024.033.032.05h.024v-.017c-.024-.008-.04-.025-.056-.033zm-.92-.835c.032.058-.009.017.048.05h.016c.008-.009.016-.017.016-.033a.277.277 0 01-.08-.017zM75.175 9.05c-.033-.008-.056-.008-.09-.016a.993.993 0 01-.136.123c.056.057.08.081.089.139a.13.13 0 01.056.032.768.768 0 01.121-.106 1.286 1.286 0 01-.04-.172zm-9.82 1.638c-.082-.025-.098.049-.243.073a.258.258 0 01-.016-.065c.04-.074.105-.115.194-.147 0-.017.008-.033.016-.041-.008-.008-.016-.008-.016-.017-.226.017-.267.066-.388.156l-.04-.066c-.04-.008-.008.017-.049-.016.121-.114.38-.18.428-.23l.032-.032c-.072-.074-.258-.057-.395-.074.048-.106.008-.032-.008-.171.097-.017.137-.033.194-.099-.113-.098-.3-.204-.46-.171-.065-.082-.009-.123-.114-.164-.048.016 0 .033-.056.008-.008.05-.016.033.016.074-.032 0-.065-.008-.105-.008-.097.008-.065.008-.056-.082-.081.008-.049-.008-.065.04-.065-.032-.097-.057-.178-.057.008-.016.025-.032.033-.049-.065-.032-.016-.016-.081 0l-.032-.032v-.082c.064 0 .129 0 .21-.009v-.016c-.113-.074-.226-.074-.34-.164-.105.042-.201.082-.314.123.048-.18.363-.327.532-.368a.361.361 0 01.073-.09c-.056-.04-.056-.049-.145-.057v-.033c.089.024.153.05.25.041.008-.008.016-.025.032-.033 0-.016.008-.032.016-.049-.088-.024-.185-.05-.282-.082-.097.008-.21.008-.307.008-.073.017-.258.123-.355.172-.186.099-.258.336-.509.393-.032.065-.024.05 0 .123v.016c-.072-.016-.048-.008-.089-.04-.113.024-.161.106-.226.18.033.032.073.065.105.09-.145-.025-.322.057-.492.081.008.066.016.123.032.18.29.074 1.462.311 1.558.417-.024 0-.048-.008-.072-.008.113.05.234.09.347.14.032-.033.024-.025.032-.082a2 2 0 01.234.09 1.072 1.072 0 01-.54.073.382.382 0 01-.025.074c.372.147.662-.025.985-.13.024.032.049.072.073.097-.008.147-.089.188-.186.254.024.065.016.05.08.09.082-.025.154-.05.235-.074-.032.057-.048.082-.048.197.096.024.169.049.258.073.137-.073.17-.204.282-.278-.008-.057-.008-.098-.016-.147zm9.796-.949c-.033-.022-.067-.068-.101-.09-.022.022-.068.068-.101.09.1.202.146.336.203.56.022.023.056.045.078.045a7.103 7.103 0 01-.079-.605z" fill="#25213F"/><path fill-rule="evenodd" clip-rule="evenodd" d="M79.446 10.506c.008.04.032.082.04.123h.016c-.04-.143.008-.041-.056-.123zM64.123 9.068l.049.124c.016 0 .023-.021.032-.021v-.04a.714.714 0 00-.081-.063zm-1.72.407h-.105c-.008 0-.016.022-.032.022-.008.045-.008.09-.016.157.08.045.161.067.234.09-.024-.09-.056-.18-.08-.27zm12.975.851v.135h.032c-.016-.135 0-.045-.032-.135zm.07-.133l-.015.045v.044l.016.046h.016c.008-.046.016-.09.016-.135h-.032zm-.351-.36v.09c.016-.023.032-.023.048-.046v-.044h-.048zm.314-.066c.016.067.032.112.048.179a.34.34 0 00.016-.09c-.016-.022-.04-.067-.064-.09zm.39.636c-.048.18-.056.247-.145.314.032.292.056.201.129.336.049-.135.073-.47.016-.65zM64.7 9.664c-.008.067-.016.112-.016.18.04 0 .089.021.129.021-.024-.224-.016-.179-.113-.2z" fill="#25213F"/><path fill-rule="evenodd" clip-rule="evenodd" d="M76.158 10.868a.088.088 0 01-.017-.04c.105-.033.097-.082.178-.123v-.082c-.13-.123-.234-.123-.347-.278-.121-.074-.234-.05-.331.04.008-.04.008-.024.032-.073-.048-.024-.097-.05-.153-.065a.441.441 0 01-.258.098c-.017.114-.009.114-.073.188.064.066.13.049.21.025-.033.098-.065.073-.065.147-.161 0-.315.008-.476.008.008.098.024.033.064.098a3.685 3.685 0 01-.048.025c.065.065.129.057.226.057l-.113.131c.129.18.242.065.452.13-.12.083-.08.083-.08.197-.081.082-.073.058 0 .107-.05.082-.04.032-.025.122-.04 0-.089-.008-.137-.008-.016.033-.024.058-.04.098.064-.016.137-.032.201-.04-.04.024-.08.057-.129.081.21.516.945-.147 1.268-.139-.016-.229-.113-.589-.34-.704zm-.107-.802h-.04v.066c.032-.008.048-.008.072-.017-.008-.016-.024-.032-.032-.049zm-16.173-.284c-.073-.032-.048 0-.056-.082-.081-.081-.04-.057-.017-.163a.117.117 0 01-.048-.016l-.202.073c0 .016-.008.025-.016.033.186.172.355.27.614.376.056.033.024 0 .04.05.04.048.065.056.129.09.17-.034.145-.115.38-.107 0-.008.008-.008.016-.016v-.017c-.121-.049-.84-.22-.84-.22zm15.8.17l-.017.015v.017c.009.008.025.008.033.016.008-.008.016-.008.016-.016l-.032-.033zm-17.536.211c-.016.067-.032.111-.048.179.008.022.016.022.032.045.049-.09.04-.045.065-.224h-.049zM80.7 11.216c.016.067.024.157.033.224.04.045.08.068.129.112-.049-.201-.081-.247-.162-.336zm-15.777-1.144c-.008.045-.008.09-.016.134.016-.022.032-.022.049-.044l-.033-.09zm-7.887.058c-.008.136-.016.097.017.194.008-.02.024-.04.032-.078l-.049-.115zm19.562 1.196c-.008.078-.032.155-.04.232.008.038.008.077.023.135.025-.04.057-.04.09-.058 0-.04.007-.077.016-.116-.033-.058-.057-.135-.09-.193zm-17.166-1.079c-.008.058-.008.097-.016.155a.268.268 0 00.049.077c.104-.02.21-.058.314-.077-.113-.058-.234-.097-.347-.155zm1.895.178h-.045a.264.264 0 00-.023.09c.068-.023.113.044.068-.09z" fill="#25213F"/><path fill-rule="evenodd" clip-rule="evenodd" d="M64.621 10.816c-.024.045-.048.09-.064.135-.008.067-.017.113-.017.157h.049c.024-.044.064-.09.089-.157v-.135h-.057zm-1.124-.179c.008.068.024.135.032.18a.196.196 0 00.032-.09c-.016-.022-.04-.045-.064-.09zm-2.233-.268h-.097c-.032.044-.064.112-.097.157.065.022.146.022.21.022v-.044c-.008-.045-.008-.09-.016-.135zm-5.838.841c-.008.042-.008.07-.016.098.024-.056.032-.014.016-.098zm24.142.815v.085h.033c-.025-.085 0-.028-.033-.085zm.026-.196c-.009.014-.009.043-.017.056l.017.029.032-.056v-.029h-.032zm.195-.153c-.008.014-.008.028-.016.056.049-.028.024 0 .049-.056h-.033zm1.227-.226c.033.028.073.056.105.098v-.028c-.032-.056-.032-.042-.105-.07zm-17.456-.803v.056c.008-.013.032-.027.04-.056h-.04zm-.06-.098a.146.146 0 00-.016.056c.016.014.032.028.048.028s.024-.013.032-.028c-.016-.014-.04-.028-.064-.056zm-8.707.578c-.012.023-.035.023-.047.045v.045c.035-.023.082-.067.13-.09m1.313-.043c-.047.022-.082.067-.13.09v.09c.083.021.165.043.248.043v-.044c-.047-.135-.024-.112-.118-.179z" fill="#25213F"/><path fill-rule="evenodd" clip-rule="evenodd" d="M83.374 14.952l.049.074v-.05l-.049-.024zm-47.356-.483c-.017.082-.04.164-.057.254.008.008.008.016.016.033l.025-.008c.023-.082.04-.172.064-.254l-.049-.025zm16.138-1.122c-.008.008-.008.024-.017.032h.057a.175.175 0 00-.04-.032zm-15.842-.278c.048-.041.024-.025.032-.066-.008.025-.024.041-.032.066zm.28-.654c-.072.197-.137.336-.169.507h.016c.073-.13.267-.286.154-.507zm19.363-1.211c-.008.008-.008.024-.016.033.024.008.057.024.08.032h.017c.008-.008.016-.016.024-.032-.04-.025-.04-.025-.105-.033zm-.942-.083l.032.033h.016c-.024-.033 0-.008-.048-.033zm29.173 4.982v.05c.008 0 .024 0 .032.008-.024-.058 0-.024-.032-.058zM42.093 14.85c-.008.017-.032.034-.04.05.032-.008.048-.025.072-.033-.008-.009-.024-.009-.032-.017zm2.091-.25c-.056.05-.105.058-.137.141.113.017.194 0 .29 0v-.016a2.469 2.469 0 00-.153-.125zm-1.623.033c-.008.025-.024.05-.032.067.032-.034.048-.025.032-.067zm40.292 1.364l.049.123a.69.69 0 01-.097.065c0 .221.161.516.299.598.016.008.024.024.04.04h.016c-.008-.261-.13-.728-.307-.826zm-47.708 1.516c-.008.023-.008.034-.016.045.016.034.032.056.056.09.008 0 .008 0 .016-.012-.008-.112 0-.09-.056-.123zm47.944-1.426c-.008.011-.025.011-.033.023v.067c.025 0 .057.011.081.011-.016-.078-.008-.056-.048-.101zm3.055 1.509c.008.031.024.062.032.093h.016c-.024-.083 0-.041-.048-.093zm-.154-.178v.083c.017.02.032.03.049.062-.008-.104-.008-.093-.049-.145zm-2.316.91a4.098 4.098 0 00-.428-1.406.328.328 0 00-.057-.031c-.016.072-.024.134-.04.196-.073.062-.049.062-.13.01.017.26.219.497.283.714.057.166.016.372.049.486.072.052.08.124.225.155a1.48 1.48 0 01-.015-.176c.04 0 .048.01.096.052h.017zm2.284.544v.198a.532.532 0 01.048.081c.016.012.033.024.04.035.017-.011.017-.035.025-.046-.04-.093-.073-.186-.113-.268zm-8.026-.745c.008.047.008.093.024.14 0-.058.008-.093.008-.14h-.032zm8.435.396v.07c.032.023.056.035.072.058a.522.522 0 00-.072-.128zm-.166-.77v.07c.024.024.04.06.064.082v-.093l-.064-.058zm-.178-.128c.009.047.025.082.032.128a.504.504 0 00-.064-.081c.024.047.04.116.064.163a.464.464 0 00.05-.082c-.025-.034-.05-.081-.082-.128zM61.747 49.37c-.008.024-.008.057-.017.073.025-.016.057-.049.081-.073m24.886-29.754c.016.033.033.066.049.106.008-.016.016-.024.016-.032-.024-.025-.04-.05-.065-.074zm-47.441-.794v.147c.024-.016.04-.016.065-.016v-.016c-.017-.058-.025-.082-.065-.115zm46.798-.024c.008.024.008.049.017.065.032.025.048.041.072.057v-.065c-.024-.017-.064-.04-.089-.057zm.208-.196a.511.511 0 01-.064-.025c.048.05.096.098.145.156.008-.017.024-.017.04-.041-.048-.025-.08-.058-.121-.09zM50.1 58.893c-.016-.008-.033-.008-.057-.016a.45.45 0 01-.105.065c.105.017.154.05.194-.049H50.1zm-.32-.156l-.015.016c.008.017.024.025.04.033a.11.11 0 00.049-.017c-.017-.008-.04-.024-.073-.032zm-1.738-2.914v.049h.049l-.049-.05zm-.121-.375c.008.016.032.033.04.05h.064v-.017c-.032-.025-.032-.025-.104-.033zm.408-.376c.032.057 0 .016.049.04.008 0 .016-.007.016-.024v-.016h-.065zm3.815-.442c.015.09.007.106.096.147v-.016c-.032-.074-.008-.098-.096-.131zm-4.43-1.244c-.008.008-.008.024-.017.032a.062.062 0 00.033.017c.008 0 .008-.009.016-.017l-.032-.032zm9.58-1.047v-.155c-.088 0-.16.024-.241.032-.09.205-.307.32-.485.442v.017c.032.008.057.024.089.04a.853.853 0 00.38-.163v-.082c.104-.025.185-.082.258-.131zm1.25-1.138c-.008.017-.008.033-.024.05.016-.009.032-.017.04-.033l-.016-.017zm.038-.091c-.008.016-.008.032-.016.049.032-.025.008 0 .032-.05h-.016zm2.616-1.709c-.025.008-.04.025-.057.033.008.016.024.025.032.033h.09v-.017a.456.456 0 00-.065-.049zm-10.702 9.492c-.024-.008-.056-.008-.08-.016-.017.008-.033.008-.057.016.016.008.024.008.04.016l.049.05c.024-.009.04-.017.072-.033-.016-.009-.016-.025-.024-.033z" fill="#25213F"/><mask id="mask0" maskUnits="userSpaceOnUse" x="0" y="0" width="89" height="65"><path fill-rule="evenodd" clip-rule="evenodd" d="M0 0h88.946v64.206H0V0z" fill="#fff"/></mask><g mask="url(#mask0)" fill-rule="evenodd" clip-rule="evenodd" fill="#25213F"><path d="M58.861 0C45.814 0 34.616 8.027 29.813 19.467 34.245 11.472 43.617 1.874 58.844 1.89c13.75.008 24.027 8.396 29.065 17.593C83.114 8.035 71.908 0 58.86 0zm-6.884 59.818c.04.057.121.049.21.073.008-.016.008-.024.016-.04-.08-.009-.153-.025-.226-.033zm-.498-.017c-.008.066-.017.025.048.05l-.049-.05zm-.819-.63v-.017c-.145-.016-.202-.008-.29-.065-.017-.123 0-.164-.13-.197.025.123.065.27.057.344.016.008.04.016.056.016.017-.04.033-.073.049-.114a.06.06 0 01.032.016.35.35 0 00.162.196c-.04-.04-.065-.09-.097-.13v-.017c.056-.008.113-.024.161-.033z"/><path d="M4.876 40.614c-3.148 0-4.82-2.038-4.836-5.916L0 25.803a.2.2 0 01.17-.196l2.736-.27c.057-.009.106.016.146.057.04.033.056.082.056.13l.049 8.806c.008 1.93.734 2.913 2.164 2.913.104 0 .226 0 .339-.017 1.67-.164 2.526-1.317 2.51-3.428L8.13 25a.2.2 0 01.17-.196l2.753-.27c.056-.009.104.016.145.057.04.033.056.082.056.13l.04 8.904c.017 2.39-.694 6.464-5.61 6.947a9.19 9.19 0 01-.808.04zm84.07 1.071C84.861 54.36 73.356 64.23 58.783 64.23c-15.452 0-25.835-9.73-30.017-22.266 4.352 11.677 16.155 20.048 30.05 20.048 13.983 0 25.876-8.51 30.13-20.326z"/></g><path fill-rule="evenodd" clip-rule="evenodd" d="M119.506 40.841h-.016l-8.986-.85a.18.18 0 01-.169-.18l-.089-14.869c0-.049.032-.106.073-.139a.188.188 0 01.137-.05l2.713.255c.104.008.169.09.169.188l.057 11.775 6.119.565c.097.008.17.098.17.196l.016 2.913a.176.176 0 01-.064.139c-.033.041-.073.057-.13.057zm-19.371-7.896l2.615.196-1.284-3.6-1.331 3.404zm8.186 6.84h-.017l-3.116-.237a.173.173 0 01-.162-.123l-1.049-2.953-5.07-.369-1.074 2.774c-.024.074-.105.131-.186.115l-2.616-.188a.2.2 0 01-.145-.099.168.168 0 01-.016-.163l5.603-14.394a.185.185 0 01.186-.114l2.188.155c.072 0 .129.058.161.131l5.49 15.212a.18.18 0 01-.024.18c-.032.049-.097.074-.153.074zm-19.758-.924c-.202 0-.404-.009-.614-.017-2.236-.123-4.578-1.538-5.24-1.972a.2.2 0 01-.088-.164l-.017-3.387c0-.066.04-.131.105-.164.057-.033.13-.024.186.009 2.035 1.374 3.964 2.258 5.062 2.315 1.033.066 1.72-.09 2.059-.442.177-.172.258-.392.25-.67 0-.336-.331-.655-1.05-1.024-.411-.204-.92-.417-1.453-.638-2.26-.941-5.353-2.226-5.369-5.695-.008-1.154.356-2.111 1.066-2.848.929-.933 2.406-1.407 4.07-1.325 1.953.114 4.278 1.12 5.368 1.784a.18.18 0 01.089.163l.016 3.281c0 .066-.04.131-.097.164a.184.184 0 01-.194-.008c-.67-.442-3.02-1.907-5.183-2.021-.775-.041-1.154.171-1.324.335a.588.588 0 00-.186.417c.008.36.347.712 1.058 1.105.436.238.977.467 1.558.704 2.22.957 5.272 2.25 5.28 5.368.008 1.399-.387 2.512-1.178 3.314-.929.933-2.326 1.416-4.174 1.416zm-17.395-9.876l2.568.073c.113 0 .226.009.33.009.953 0 1.502-.14 1.801-.45.242-.238.347-.623.347-1.244-.008-.696-.137-1.318-1.695-1.367l-3.367-.106.016 3.085zm9.168 9.017h-.007l-3.746-.106a.199.199 0 01-.154-.098l-3.173-5.532-2.05-.066.024 5.336a.193.193 0 01-.057.13.202.202 0 01-.137.05l-3.157-.09a.184.184 0 01-.185-.189l-.065-14.687c0-.05.016-.107.056-.14.032-.032.081-.057.13-.049l7.952.237c2.64.082 4.158 1.784 4.174 4.673.016 2.79-1.453 3.952-2.785 4.435l3.342 5.81a.211.211 0 010 .196.185.185 0 01-.162.09zm-27.905-.442a.19.19 0 01-.186-.188l-.089-14.639a.2.2 0 01.065-.139.16.16 0 01.129-.057l11.577-.017c.105 0 .186.09.186.197l.016 2.856c.008.049-.024.09-.056.13a.183.183 0 01-.13.05l-8.073.008.008 2.545 5.425-.009c.105 0 .194.082.194.18l.008 2.88c.008.05-.016.099-.056.14a.19.19 0 01-.13.057h-5.417l.016 2.75 8.155-.008c.105 0 .185.081.185.188l.017 2.872c0 .057-.017.106-.057.139a.187.187 0 01-.137.049l-11.65.017zm-11.158.277a.178.178 0 01-.17-.122l-6.152-14.45c-.032-.067-.032-.132.008-.181a.215.215 0 01.153-.09l3.601-.106c.08 0 .145.04.178.114l4.012 9.443 4.134-9.696c.024-.074.089-.115.17-.115l2.833-.082c.073 0 .13.025.162.082s.04.123.016.18L43.904 37.65a.185.185 0 01-.161.106l-2.462.081h-.008zm-11.588.5a.21.21 0 01-.138-.057.2.2 0 01-.056-.14l-.081-14.638c0-.098.08-.18.178-.189l3.148-.163a.193.193 0 01.202.197l.065 14.63c0 .115-.08.196-.178.196l-3.132.164h-.008zm-15.44 1.008a.163.163 0 01-.121-.048.18.18 0 01-.065-.148l-.073-14.68c0-.106.081-.188.178-.196l2.923-.205c.064 0 .129.025.17.074l6.191 8.29-.04-8.626c0-.098.073-.18.178-.188l2.365-.171c.049 0 .097.016.138.049.04.032.056.081.056.139l.073 14.688a.183.183 0 01-.178.188l-2.422.18a.202.202 0 01-.17-.082l-6.692-8.985.048 9.362c0 .098-.073.18-.178.188l-2.357.171h-.024z" fill="#25213F"/></svg>