<svg width="129" height="21" fill="none" xmlns="http://www.w3.org/2000/svg"><g clip-path="url(#clip0)"><path d="M84.117 20.728c-2.507-.547-4.96-2.26-6.036-4.254-1.606-2.965-1.624-8.048-.018-11.066.635-1.2 2.4-2.965 3.53-3.53C83.234 1.05 84.858.714 87.205.714c3.513 0 5.542.706 7.448 2.594 1.236 1.218 2.136 2.895 2.524 4.73.282 1.377.282 4.5 0 5.736-.847 3.618-3.442 6.124-7.183 6.954-1.536.335-4.306.353-5.877 0zm5.753-4.042c1.112-.547 1.818-1.412 2.312-2.788.477-1.395.442-4.977-.088-6.301-.512-1.289-1.218-2.118-2.259-2.648-.741-.388-1.094-.44-2.63-.44-1.57 0-1.87.052-2.788.493-1.677.83-2.506 2.4-2.7 5.101-.283 3.76.988 6.213 3.582 6.954 1.324.37 3.389.212 4.571-.37zm-63.06 3.795c-.318-.194-.653-.495-.741-.689-.124-.229-.195-3.406-.195-9.636V.89h4.59v19.944H28.91c-1.2 0-1.659-.07-2.1-.353zm13.502.176c-2.93-.335-4.501-1.73-5.084-4.5-.547-2.648.583-5.666 2.507-6.636 1.359-.689 2.788-.865 7.536-.865h4.483l-.124-1.024c-.176-1.447-.582-2.188-1.412-2.612-.635-.318-1.165-.353-5.86-.441l-5.188-.07-.494-.495c-.424-.424-.494-.653-.547-1.818L36.058.855l6.69.07c7.324.071 7.659.124 9.247 1.183.97.635 1.642 1.694 2.012 3.124.37 1.447.406 9.548.053 11.048-.494 2.083-1.835 3.53-3.83 4.13-1.147.335-7.66.494-9.918.247zm8.189-4.2c.67-.389.97-1.148 1.112-2.736l.123-1.359-3.953.018c-4.289.017-4.924.123-5.507.9-.688.935-.37 2.859.547 3.336.583.3 5.013.494 6.301.264.494-.07 1.112-.264 1.377-.423zm16.996 4.183c-4.06-.6-6.707-3.16-7.43-7.219-.583-3.23-.053-6.407 1.43-8.736 1.111-1.748 2.346-2.665 4.5-3.371.811-.265 1.817-.318 5.965-.389l4.977-.07v1.253c0 1.13-.053 1.306-.512 1.818l-.512.582-3.776.088c-3.742.089-3.777.089-4.819.618-1.87.936-2.559 2.453-2.559 5.648 0 2.965.83 4.695 2.63 5.542.935.441 1.182.459 4.606.564 2.383.071 3.76.177 4.007.318.617.353.935 1.13.935 2.4v1.148l-4.2-.018c-2.295-.018-4.66-.088-5.242-.176zm-56.019-.371c-.088-.23-1.2-2.912-2.488-5.965C2.154 2.76 1.519 1.224 1.519 1.048c0-.088.935-.159 2.188-.159 2.03 0 2.224.035 2.63.388.406.371.847 1.412 4.73 11.314.494 1.235.918 2.241.935 2.206.053-.053 3.742-8.737 5.048-11.843C17.897.978 18.038.89 20.703.89c1.695 0 2.189.053 2.118.212-.159.388-6.23 13.925-7.89 17.614l-.829 1.853-2.223.053c-2.189.053-2.242.035-2.4-.353zm91.758-9.495V.89h3.689c3.583 0 3.706.018 4.148.388.423.371 1.147 2.1 4.818 11.508l.829 2.1.424-.953c.229-.53 1.5-3.495 2.806-6.6 1.553-3.672 2.524-5.79 2.824-6.037.406-.388.547-.406 3.954-.406h3.512v19.767h-1.642c-1.729 0-2.206-.159-2.647-.935-.159-.283-.247-2.206-.318-7.29l-.088-6.9-3.353 7.518-3.354 7.519-2.223.053-2.224.053-.883-2.083c-.476-1.147-1.941-4.624-3.247-7.748l-2.365-5.665-.071 7.077c-.07 5.224-.141 7.183-.317 7.466-.442.776-.901.935-2.648.935h-1.624v-9.883z" fill="#25213F"/></g><defs><clipPath id="clip0"><path fill="#fff" d="M.813 0H128.24v21H.813z"/></clipPath></defs></svg>